<svg width="32" height="32" viewBox="0 0 32 32" xmlns="http://www.w3.org/2000/svg">
  <!-- Blue background circle -->
  <circle cx="16" cy="16" r="16" fill="#2563eb"/>
  
  <!-- Left page of open book -->
  <path d="M 6 14 L 6 24 Q 6 25 7 25 L 15 25 Q 16 24 16 23 L 16 13 Q 15 12 14 12 L 8 12 Q 6 12 6 14 Z" fill="#ffffff"/>
  
  <!-- Right page of open book -->
  <path d="M 26 14 L 26 24 Q 26 25 25 25 L 17 25 Q 16 24 16 23 L 16 13 Q 17 12 18 12 L 24 12 Q 26 12 26 14 Z" fill="#ffffff"/>
  
  <!-- Book spine/binding -->
  <line x1="16" y1="13" x2="16" y2="25" stroke="#2563eb" stroke-width="1"/>
  
  <!-- Small decorative highlight -->
  <circle cx="8" cy="8" r="1.5" fill="#ffffff" opacity="0.7"/>
</svg>